<svg width="32" height="51" fill="none" xmlns="http://www.w3.org/2000/svg"><path d="M25.992 42.072c0 2.624.384 4.448 1.152 5.472.832.96 2.24 1.44 4.224 1.44V51c-6.912-.256-11.328-.384-13.248-.384-2.24 0-7.2.096-14.88.288L.456 51v-2.016c2.752 0 4.8-.576 6.144-1.728 1.408-1.152 2.112-3.2 2.112-6.144V17.496c0-3.072-.256-5.312-.768-6.72-.448-1.472-1.248-2.432-2.4-2.88-1.088-.512-2.784-.768-5.088-.768V5.016c6.208-.128 11.264-.544 15.168-1.248C19.592 3 23.048 1.784 25.992.12v41.952z" fill="#0095BF"/></svg>