<svg width="47" height="53" fill="none" xmlns="http://www.w3.org/2000/svg"><path d="M25.32.832c5.312 0 9.504 1.088 12.576 3.264 3.072 2.176 4.608 5.184 4.608 9.024 0 2.56-.8 4.928-2.4 7.104-1.6 2.112-3.52 3.968-5.76 5.568-2.24 1.6-5.216 3.488-8.928 5.664-4.608 2.624-7.872 4.768-9.792 6.432H37.32c1.728 0 3.008-.096 3.84-.288.896-.256 1.504-.64 1.824-1.152.32-.576.576-1.408.768-2.496h2.208c0 8.704.128 14.88.384 18.528-1.408-.32-6.176-.48-14.304-.48H.456v-2.016c-.256.256 1.152-1.056 4.224-3.936 3.648-3.264 6.752-6.24 9.312-8.928 2.56-2.688 4.8-5.76 6.72-9.216 1.92-3.52 2.88-7.168 2.88-10.944 0-3.264-.704-5.632-2.112-7.104-1.408-1.536-3.552-2.304-6.432-2.304-2.688 0-5.056.544-7.104 1.632-2.048 1.088-3.968 2.688-5.76 4.8L.552 12.832c2.496-3.776 5.696-6.72 9.6-8.832C14.12 1.888 19.176.832 25.32.832z" fill="#0095BF"/></svg>