<svg width="45" height="67" fill="none" xmlns="http://www.w3.org/2000/svg"><path d="M22.864.832c5.312 0 9.664.992 13.056 2.976 3.392 1.984 5.088 4.704 5.088 8.16 0 3.712-2.016 7.04-6.048 9.984-3.968 2.88-9.6 4.832-16.896 5.856.768-.064 1.888-.096 3.36-.096 7.04 0 12.64 1.344 16.8 4.032 4.16 2.624 6.24 6.208 6.24 10.752 0 4.672-2.176 8.832-6.528 12.48-4.352 3.712-9.952 6.56-16.8 8.544-6.848 1.984-13.792 2.976-20.832 2.976V64.48c4.032-.192 8.064-1.152 12.096-2.88 4.096-1.728 7.488-4.224 10.176-7.488 2.752-3.2 4.128-7.04 4.128-11.52 0-3.776-.896-6.848-2.688-9.216-1.792-2.432-4.224-3.776-7.296-4.032-1.28.576-2.304.992-3.072 1.248a6.41 6.41 0 01-2.208.384c-.64 0-1.12-.096-1.44-.288-.32-.256-.48-.672-.48-1.248 0-.768.32-1.312.96-1.632.64-.384 1.472-.576 2.496-.576.64 0 1.248.032 1.824.096.576.064 1.088.128 1.536.192 4.928-3.2 7.392-7.264 7.392-12.192 0-2.752-.768-4.832-2.304-6.24-1.472-1.408-3.584-2.112-6.336-2.112-2.496 0-4.832.608-7.008 1.824-2.112 1.152-3.904 2.816-5.376 4.992l-1.728-.96c2.176-3.648 4.96-6.56 8.352-8.736C12.72 1.92 17.232.832 22.864.832z" fill="#0095BF"/></svg>